GRF_marche0007
version=1
nRows=12
nColumns=19
inDegrees=yes
endheader
time	ground_force_vx	ground_force_vy	ground_force_vz	ground_force_px	ground_force_py	ground_force_pz	1_ground_force_vx	1_ground_force_vy	1_ground_force_vz	1_ground_force_px	1_ground_force_py	1_ground_force_pz	ground_torque_x	ground_torque_y	ground_torque_z	1_ground_torque_x	1_ground_torque_y	1_ground_torque_z
      0.00000000	     -0.36411448	     -1.74970257	      0.26329184	      0.60692099	      0.00824200	      0.26338026	      0.27163205	     -0.82576369	     -0.47807099	     -0.63232696	      0.00837098	      0.60062519	      0.45230198	     -0.30714025	     -1.05118924	      0.45262375	     -0.01952746	      0.58913249
      0.01000000	     -0.33113781	     -1.64696108	      0.23815504	      0.61957433	      0.00827193	      0.25324734	      0.21794697	     -0.65638817	     -0.38395345	     -0.61027302	      0.00841744	      0.59380020	      0.41112075	     -0.27089407	     -1.01196681	      0.34929576	      0.00724300	      0.46433904
      0.02000000	     -0.29890094	     -1.53894641	      0.21545169	      0.63416616	      0.00830542	      0.24285726	      0.16662916	     -0.48892052	     -0.29325904	     -0.57359218	      0.00850189	      0.58711820	      0.37013713	     -0.23700783	     -0.96957529	      0.24936966	      0.03287742	      0.34095912
      0.03000000	     -0.26844947	     -1.42277844	      0.19670053	      0.65051146	      0.00834218	      0.23218790	      0.11955867	     -0.32984510	     -0.20995471	     -0.50096802	      0.00868202	      0.58230192	      0.32872430	     -0.20760993	     -0.92089926	      0.15705889	      0.05599875	      0.22248415
      0.04000000	     -0.24070897	     -1.29771553	      0.18300903	      0.66846274	      0.00838214	      0.22098568	      0.07830808	     -0.18445978	     -0.13706080	     -0.31574393	      0.00916600	      0.58599517	      0.28667895	     -0.18432429	     -0.86421633	      0.07582077	      0.07567100	      0.11180994
      0.05000000	     -0.21640923	     -1.16544837	      0.17492612	      0.68783129	      0.00842537	      0.20874816	      0.04403535	     -0.05670859	     -0.07645464	      0.49074198	      0.01120892	      0.56020504	      0.24427576	     -0.16809720	     -0.79941790	      0.00816795	      0.09147735	      0.01116465
      0.06000000	     -0.19604493	     -1.03007287	      0.17238395	      0.70820828	      0.00847175	      0.19473537	      0.01742441	      0.05085480	     -0.02882453	     -0.50213864	      0.01007145	      1.48818740	      0.20226826	     -0.15912446	     -0.72803543	     -0.04443112	      0.10351131	     -0.07788815
      0.07000000	     -0.17987014	     -0.89771466	      0.17473978	      0.72863763	      0.00852032	      0.17805621	     -0.00133269	      0.13698055	      0.00623929	     -1.16230233	      0.00698340	      0.58823778	      0.16182587	     -0.15688668	     -0.65305542	     -0.08156311	      0.11229043	     -0.15438342
      0.08000000	     -0.16791727	     -0.77583361	      0.18090770	      0.74713060	      0.00856823	      0.15796271	     -0.01252170	      0.20152921	      0.03004709	     -1.14813327	      0.00686630	      0.48825255	      0.12440695	     -0.16028122	     -0.57853792	     -0.10379719	      0.11861521	     -0.21784340
      0.09000000	     -0.16002860	     -0.67229869	      0.18954975	      0.76020031	      0.00860933	      0.13456962	     -0.01686750	      0.24519955	      0.04454083	     -1.15288679	      0.00677664	      0.43790717	      0.09158156	     -0.16782089	     -0.50908644	     -0.11253729	      0.12340023	     -0.26814335
      0.10000000	     -0.15589131	     -0.59436429	      0.19928464	      0.76298275	      0.00863351	      0.11000006	     -0.01547371	      0.26922030	      0.05198996	     -1.18628543	      0.00662263	      0.39382113	      0.06482925	     -0.17785884	     -0.44924018	     -0.10981417	      0.12750387	     -0.30538040
      0.11000000	     -0.15506982	     -0.54769054	      0.20887425	      0.75070305	      0.00862883	      0.08891163	     -0.00974001	      0.27505759	      0.05468779	     -1.24740159	      0.00639609	      0.34911300	      0.04534283	     -0.18879898	     -0.40287050	     -0.09804056	      0.13158141	     -0.32977072
